<?xml version="1.0" encoding="utf-8"?>
<!-- Generator: Adobe Illustrator 23.0.0, SVG Export Plug-In . SVG Version: 6.00 Build 0)  -->
<svg version="1.1" xmlns="http://www.w3.org/2000/svg" xmlns:xlink="http://www.w3.org/1999/xlink" x="0px" y="0px"
	 viewBox="0 0 342.6 111.6" style="enable-background:new 0 0 342.6 111.6;" xml:space="preserve">
<style type="text/css">
	.st0{fill:#5D595C;}
	.st1{fill:#4D4D4D;}
	.st2{fill:#7AAF54;}
	.st3{fill:#AAAA33;}
	.st4{fill:#608548;}
	.st5{fill:#CCD333;}
	.st6{fill:#FFFFFF;}
	.st7{fill:#7C7778;}
	.st8{fill:#615D5F;}
</style>
<g id="DISEÑO">
</g>
<g id="DISEÑO_1_">
	<g>
		<g>
			<g>
				<path class="st1" d="M108.5,43.9H127c0.3,0,0.7-0.2,1.1-0.6c0.4-0.4,0.8-0.9,1.1-1.5c0.3-0.6,0.6-1.2,0.8-1.7
					c0.2-0.6,0.3-1,0.3-1.4c0-0.5-0.2-0.7-0.6-0.7h-21.5c-0.9,0-1.8,0.2-2.8,0.5c-1,0.3-2,0.8-2.8,1.5c-0.9,0.7-1.6,1.6-2.2,2.8
					c-0.6,1.2-0.9,2.6-0.9,4.4c0,1.5,0.3,2.9,0.9,4c0.6,1.1,1.3,2.1,2.2,2.9c0.9,0.8,1.8,1.3,2.8,1.7c1,0.4,1.9,0.6,2.8,0.6h14.1
					c0.6,0.2,1.2,0.6,1.6,1.1c0.5,0.6,0.7,1.2,0.7,1.9c0,1-0.3,1.7-1,2.3c-0.7,0.6-1.4,0.9-2.4,0.9h-18.5c-0.3,0-0.7,0.2-1.1,0.6
					c-0.4,0.4-0.8,0.9-1.1,1.5c-0.3,0.6-0.6,1.2-0.8,1.7c-0.2,0.6-0.3,1-0.3,1.4c0,0.5,0.2,0.7,0.6,0.7h21.5c0.9,0,1.8-0.2,2.8-0.5
					c1-0.3,2-0.8,2.8-1.5c0.9-0.7,1.6-1.6,2.2-2.8c0.6-1.2,0.9-2.6,0.9-4.4c0-1.5-0.3-2.8-0.9-3.9c-0.6-1.1-1.3-2.1-2.2-2.9
					c-0.9-0.8-1.8-1.3-2.8-1.7c-1-0.4-1.9-0.6-2.7-0.6h-13.4c-0.8,0-1.5-0.3-2.1-0.8c-0.6-0.6-0.9-1.3-0.9-2.2c0-1,0.3-1.8,1-2.4
					C106.8,44.2,107.6,43.9,108.5,43.9z"/>
				<path class="st2" d="M141.5,38.2c0-0.1-0.1-0.1-0.2-0.2c-0.1,0-0.2-0.1-0.3-0.1h-5.9c-0.3,0-0.5,0.1-0.5,0.4
					c-0.1,0.3,0,0.5,0.1,0.8l8.4,10.8l3.7-5L141.5,38.2z"/>
				<path class="st1" d="M192.5,62.5h-18.5V38.7c0-0.5-0.2-0.7-0.6-0.7H169c-0.4,0-0.6,0.2-0.6,0.7v29.1c0,0.5,0.2,0.7,0.6,0.7h20.8
					c0.3,0,0.7-0.2,1.1-0.6c0.4-0.4,0.8-0.9,1.1-1.5c0.3-0.6,0.6-1.2,0.8-1.7c0.2-0.6,0.3-1,0.3-1.4
					C193.1,62.8,192.9,62.5,192.5,62.5z"/>
				<polygon class="st3" points="53.1,38.7 44.3,41.7 41.4,42.7 30.6,46.4 44.1,58.8 52,55.6 58.7,52.9 65.4,50.1 				"/>
				<path class="st4" d="M80.4,63.9L80.4,63.9L67.5,52l-2.1-1.9l-6.8,2.8L52,55.6l-7.8,3.2l2.2,2l10.8,10c0.3,0.3,0.6,0.5,0.8,0.8
					l10-3.4l2.5-0.9L80.4,63.9L80.4,63.9z"/>
				<path class="st2" d="M78.9,36.9c-0.9-1.2-1.9-2.4-3-3.5L50.1,8.6l-2,10.8l-0.6,3.1c-1.1,6,1,12.1,5.4,16.2l0,0l12.3,11.4
					l0.2-0.1l2.1,1.9L67.5,52l12.9,11.9l0,0l2-9.8C83.7,48.1,82.3,41.9,78.9,36.9z"/>
				<polygon class="st2" points="67.5,52 67.7,52 65.6,50 65.4,50.1 				"/>
				<path class="st5" d="M58,71.5c-0.3-0.3-0.5-0.5-0.8-0.8l-10.8-10l-2.2-2L30.6,46.4l-2,9.8c-1,4.8-0.4,9.7,1.7,13.9
					c1.2,2.5,2.8,4.8,4.8,6.7l25.8,24.7L63,89.9l0.2-1C64.4,82.6,62.4,76.1,58,71.5z"/>
				<polygon class="st6" points="149.5,48.3 149.5,48.3 149.5,48.3 				"/>
				<path class="st1" d="M164.2,38.4c-0.1-0.3-0.3-0.4-0.6-0.4h-5.9c-0.1,0-0.2,0-0.3,0.1c-0.1,0-0.2,0.1-0.2,0.2l-5.9,7.7l-1.9,2.5
					l0,0l-3.8,5l0.1,0.1l0.1,0.2l0.7,0.9v13.2c0,0.5,0.2,0.7,0.6,0.7h4.5c0.4,0,0.6-0.2,0.6-0.7V54.6l11.9-15.4
					C164.3,38.9,164.3,38.7,164.2,38.4z"/>
			</g>
			<g>
				<path class="st7" d="M235.1,48.2c0,1.5-1,3.2-3.8,3.2c-1.5,0-3.1-0.6-3.7-2c-0.1-0.2,0-0.5,0.3-0.6l0.7-0.2
					c0.2-0.1,0.4,0,0.5,0.2c0.3,0.6,1.1,1.1,2.3,1.1c1.2,0,2.2-0.5,2.2-1.6c0-1.5-1.3-1.5-3-2c-2.2-0.5-2.7-1.7-2.7-3.1
					c0-1.8,1.6-3.1,3.6-3.1c1.4,0,2.6,0.7,3.1,1.9c0.1,0.2,0,0.5-0.3,0.6l-0.7,0.2c-0.2,0-0.4,0-0.5-0.2c-0.3-0.6-0.9-1.1-2.1-1
					c-0.9,0.1-1.5,0.8-1.6,1.7c0,1.4,1.3,1.6,2.7,1.9C234.2,45.7,235.1,46.4,235.1,48.2z"/>
				<path class="st7" d="M244,49.8c0.2,0,0.4,0.2,0.4,0.4v0.6c0,0.2-0.2,0.4-0.4,0.4h-5.3c-0.2,0-0.4-0.2-0.4-0.4v-10
					c0-0.2,0.2-0.4,0.4-0.4h5.2c0.2,0,0.4,0.2,0.4,0.4v0.6c0,0.2-0.2,0.4-0.4,0.4h-4v3.1h3.7c0.2,0,0.4,0.2,0.4,0.4v0.6
					c0,0.2-0.2,0.4-0.4,0.4h-3.7v3.5H244z"/>
				<path class="st7" d="M253.3,45.3h4c0.2,0,0.4,0.2,0.4,0.4v5.1c0,0.2-0.2,0.3-0.4,0.3h-0.3c-0.2,0-0.3-0.1-0.3-0.3l-0.1-1.5
					c-0.7,1.2-2,2-3.9,2c-3.2,0-5.5-2.4-5.5-5.6c0-3.2,2.3-5.6,5.5-5.6c1.6,0,3,0.6,4,1.6c0.2,0.2,0.1,0.5-0.1,0.6l-0.6,0.4
					c-0.2,0.1-0.4,0.1-0.5-0.1c-0.7-0.7-1.6-1.1-2.8-1.1c-2.5,0-3.9,2.1-3.9,4.2s1.4,4.2,3.9,4.2c2.3,0,3.5-1.4,3.8-3.2h-3.2
					c-0.2,0-0.4-0.2-0.4-0.4v-0.6C252.9,45.5,253.1,45.3,253.3,45.3z"/>
				<path class="st7" d="M269.2,40.3c0.2,0,0.4,0.2,0.4,0.4v6.3c0,2.8-1.5,4.3-4.1,4.3c-2.6,0-4.1-1.5-4.1-4.3v-6.3
					c0-0.2,0.2-0.4,0.4-0.4h0.7c0.2,0,0.4,0.2,0.4,0.4v6c0,2.3,1,3.1,2.6,3.1c1.6,0,2.6-0.8,2.6-3.1v-6c0-0.2,0.2-0.4,0.4-0.4H269.2
					z"/>
				<path class="st7" d="M280.6,51.2h-0.9c-0.3,0-0.5-0.1-0.6-0.4l-2.1-3.8c-0.1,0-0.3,0-0.4,0h-1.8v3.8c0,0.2-0.2,0.4-0.4,0.4h-0.7
					c-0.2,0-0.4-0.2-0.4-0.4v-10c0-0.2,0.2-0.4,0.4-0.4h2.9c2.5,0,3.9,1.5,3.9,3.3c0,1.3-0.7,2.4-2,3l2.3,4
					C281,50.9,280.9,51.2,280.6,51.2z M276.7,45.6c1.5,0,2.3-0.8,2.3-1.9c0-1.2-0.8-1.9-2.3-1.9h-1.8v3.8H276.7z"/>
				<path class="st7" d="M284.5,40.3h0.7c0.2,0,0.4,0.2,0.4,0.4v10c0,0.2-0.2,0.4-0.4,0.4h-0.7c-0.2,0-0.4-0.2-0.4-0.4v-10
					C284.1,40.5,284.3,40.3,284.5,40.3z"/>
				<path class="st7" d="M298.1,45.8c0,3.1-2,5.4-5.7,5.4h-2.7c-0.2,0-0.4-0.2-0.4-0.4v-10c0-0.2,0.2-0.4,0.4-0.4h2.7
					C296.2,40.3,298.1,42.7,298.1,45.8z M296.6,45.8c0-2.4-1.5-4-4.1-4h-1.5v8h1.5C295,49.8,296.6,48.2,296.6,45.8z"/>
				<path class="st7" d="M308.1,50.8l-0.8-2.2h-4.7l-0.8,2.2c-0.1,0.2-0.3,0.4-0.5,0.4h-0.9c-0.2,0-0.3-0.2-0.2-0.4l3.8-10.1
					c0.1-0.2,0.3-0.4,0.5-0.4h1c0.2,0,0.4,0.1,0.5,0.4l3.8,10.1c0.1,0.2-0.1,0.4-0.3,0.4h-0.9C308.4,51.2,308.2,51,308.1,50.8z
					 M306.8,47.2L305,42l-1.8,5.2H306.8z"/>
				<path class="st7" d="M321.6,45.8c0,3.1-2,5.4-5.7,5.4h-2.7c-0.2,0-0.4-0.2-0.4-0.4v-10c0-0.2,0.2-0.4,0.4-0.4h2.7
					C319.6,40.3,321.6,42.7,321.6,45.8z M320,45.8c0-2.4-1.5-4-4.1-4h-1.5v8h1.5C318.5,49.8,320,48.2,320,45.8z"/>
				<path class="st7" d="M233.6,68.4c0.2,0,0.4,0.2,0.4,0.4v0.6c0,0.2-0.2,0.4-0.4,0.4h-5.2c-0.2,0-0.4-0.2-0.4-0.4v-10
					c0-0.2,0.2-0.4,0.4-0.4h0.7c0.2,0,0.4,0.2,0.4,0.4v9H233.6z"/>
				<path class="st7" d="M244.5,69.4l-0.8-2.2h-4.7l-0.8,2.2c-0.1,0.2-0.3,0.4-0.5,0.4h-0.9c-0.2,0-0.3-0.2-0.2-0.4l3.8-10.1
					c0.1-0.2,0.3-0.4,0.5-0.4h1c0.2,0,0.4,0.1,0.5,0.4l3.8,10.1c0.1,0.2-0.1,0.4-0.3,0.4h-0.9C244.8,69.8,244.6,69.7,244.5,69.4z
					 M243.3,65.8l-1.8-5.2l-1.8,5.2H243.3z"/>
				<path class="st7" d="M257,66.7c0,1.8-1.2,3.1-3.7,3.1h-3.5c-0.2,0-0.4-0.2-0.4-0.4v-10c0-0.2,0.2-0.4,0.4-0.4h3.1
					c2.4,0,3.7,1.1,3.7,2.9c0,1-0.5,1.8-1.3,2.3v0C256.3,64.6,257,65.4,257,66.7z M250.9,60.4v3.3h1.8c1.2,0,2.3-0.3,2.3-1.7
					c0-1.3-1-1.6-2.1-1.6H250.9z M255.4,66.7c0-1.3-1.1-1.7-2.3-1.7h-2.2v3.5h2.4C254.6,68.4,255.4,67.8,255.4,66.7z"/>
				<path class="st7" d="M270.9,64.4c0,3.2-2.3,5.6-5.5,5.6c-3.2,0-5.5-2.5-5.5-5.6c0-3.2,2.3-5.6,5.5-5.6
					C268.6,58.8,270.9,61.2,270.9,64.4z M269.3,64.4c0-2.1-1.4-4.2-3.9-4.2c-2.5,0-3.9,2.1-3.9,4.2c0,2.1,1.4,4.2,3.9,4.2
					C267.9,68.6,269.3,66.5,269.3,64.4z"/>
				<path class="st7" d="M281.5,69.8h-0.9c-0.3,0-0.5-0.1-0.6-0.4l-2.1-3.8c-0.1,0-0.3,0-0.4,0h-1.8v3.8c0,0.2-0.2,0.4-0.4,0.4h-0.7
					c-0.2,0-0.4-0.2-0.4-0.4v-10c0-0.2,0.2-0.4,0.4-0.4h2.9c2.5,0,3.9,1.5,3.9,3.3c0,1.3-0.7,2.4-2,3l2.3,4
					C281.9,69.5,281.8,69.8,281.5,69.8z M277.6,64.2c1.5,0,2.3-0.8,2.3-1.9c0-1.2-0.8-1.9-2.3-1.9h-1.8v3.8H277.6z"/>
				<path class="st7" d="M292.3,69.4l-0.8-2.2h-4.7l-0.8,2.2c-0.1,0.2-0.3,0.4-0.5,0.4h-0.9c-0.2,0-0.3-0.2-0.2-0.4l3.8-10.1
					c0.1-0.2,0.3-0.4,0.5-0.4h1c0.2,0,0.4,0.1,0.5,0.4l3.8,10.1c0.1,0.2-0.1,0.4-0.3,0.4h-0.9C292.5,69.8,292.3,69.7,292.3,69.4z
					 M291,65.8l-1.8-5.2l-1.8,5.2H291z"/>
				<path class="st7" d="M302.6,68.4c0.2,0,0.4,0.2,0.4,0.4v0.6c0,0.2-0.2,0.4-0.4,0.4h-5.2c-0.2,0-0.4-0.2-0.4-0.4v-10
					c0-0.2,0.2-0.4,0.4-0.4h0.7c0.2,0,0.4,0.2,0.4,0.4v9H302.6z"/>
			</g>
			<g>
				<rect x="211.1" y="28.4" class="st8" width="0.6" height="53.3"/>
			</g>
		</g>
	</g>
</g>
</svg>
