<?xml version="1.0" encoding="utf-8"?>
<!-- Generator: Adobe Illustrator 25.0.0, SVG Export Plug-In . SVG Version: 6.00 Build 0)  -->
<svg version="1.1" id="Capa_1" xmlns="http://www.w3.org/2000/svg" xmlns:xlink="http://www.w3.org/1999/xlink" x="0px" y="0px"
	 viewBox="0 0 294.8 93.54" style="enable-background:new 0 0 294.8 93.54;" xml:space="preserve">
<style type="text/css">
	.st0{fill:#4E4D4D;}
	.st1{fill:#5CB24D;}
	.st2{fill:#ACAB21;}
	.st3{fill:url(#SVGID_1_);}
	.st4{fill:#498743;}
	.st5{fill:url(#SVGID_2_);}
	.st6{fill:url(#SVGID_3_);}
	.st7{opacity:0.58;fill:url(#SVGID_4_);enable-background:new    ;}
	.st8{opacity:0.58;fill:url(#SVGID_5_);enable-background:new    ;}
	.st9{opacity:0.58;fill:url(#SVGID_6_);enable-background:new    ;}
	.st10{fill:url(#SVGID_7_);}
	.st11{opacity:0.58;fill:url(#SVGID_8_);enable-background:new    ;}
	.st12{fill:url(#SVGID_9_);}
	.st13{opacity:0.58;fill:url(#SVGID_10_);enable-background:new    ;}
	.st14{fill:url(#SVGID_11_);}
	.st15{opacity:0.58;fill:url(#SVGID_12_);enable-background:new    ;}
	.st16{fill:#CAD40F;}
	.st17{fill:#FFFFFF;}
	.st18{fill:#80787A;}
	.st19{fill:#625E60;}
</style>
<g>
	<g>
		<g>
			<path class="st0" d="M81.31,36.03h18.5c0.3,0,0.7-0.2,1.1-0.6c0.4-0.4,0.8-0.9,1.1-1.5s0.6-1.2,0.9-1.7c0.2-0.6,0.3-1,0.3-1.4
				c0-0.5-0.2-0.7-0.6-0.7h-21.5c-0.9,0-1.8,0.1-2.8,0.5c-1,0.3-1.9,0.8-2.8,1.5c-0.9,0.7-1.6,1.6-2.2,2.8s-0.9,2.6-0.9,4.4
				c0,1.5,0.3,2.9,0.9,4c0.6,1.1,1.3,2.1,2.2,2.9s1.8,1.3,2.8,1.7c1,0.4,1.9,0.6,2.8,0.6h14.1c0.6,0.2,1.2,0.6,1.7,1.1
				c0.5,0.6,0.7,1.2,0.7,1.9c0,1-0.3,1.7-1,2.3c-0.6,0.6-1.4,0.9-2.4,0.9h-18.6c-0.3,0-0.7,0.2-1.1,0.6c-0.4,0.4-0.8,0.9-1.1,1.5
				s-0.6,1.2-0.8,1.7c-0.2,0.6-0.3,1-0.3,1.3c0,0.5,0.2,0.7,0.6,0.7h21.6c0.9,0,1.8-0.1,2.8-0.4s1.9-0.8,2.8-1.5
				c0.9-0.7,1.6-1.6,2.2-2.8c0.6-1.2,0.9-2.6,0.9-4.4c0-1.5-0.3-2.8-0.9-3.9c-0.6-1.1-1.3-2.1-2.2-2.9s-1.8-1.3-2.8-1.7
				s-1.9-0.6-2.7-0.6h-13.4c-0.8,0-1.5-0.3-2.1-0.8c-0.6-0.6-0.9-1.3-0.9-2.2c0-1,0.3-1.8,1-2.4
				C79.61,36.33,80.41,36.03,81.31,36.03z"/>
			<path class="st1" d="M114.31,30.33c0-0.1-0.1-0.1-0.2-0.2c-0.1,0-0.2-0.1-0.3-0.1h-5.9c-0.3,0-0.4,0.1-0.5,0.4s0,0.5,0.1,0.8
				l8.4,10.8l3.7-5L114.31,30.33z"/>
			<path class="st0" d="M165.31,54.63h-18.5v-23.9c0-0.5-0.2-0.7-0.6-0.7h-4.5c-0.4,0-0.6,0.2-0.6,0.7v29.1c0,0.5,0.2,0.7,0.6,0.7
				h20.9c0.3,0,0.7-0.2,1.1-0.6s0.8-0.9,1.1-1.5c0.3-0.6,0.6-1.2,0.9-1.7c0.2-0.6,0.3-1,0.3-1.4
				C165.91,54.93,165.71,54.63,165.31,54.63z"/>
			<path class="st2" d="M31.51,45.03l6.8-2.8l-12.4-11.4l-8.8,3c3.8,2.3,7.6,5.2,11.4,8.5C29.61,43.23,30.51,44.13,31.51,45.03z"/>
			
				<radialGradient id="SVGID_1_" cx="835.794" cy="-1129.4551" r="23.9815" gradientTransform="matrix(-0.957 -0.8433 0.1983 -0.2251 1062.9124 489.778)" gradientUnits="userSpaceOnUse">
				<stop  offset="0" style="stop-color:#020203"/>
				<stop  offset="0.0392" style="stop-color:#050706"/>
				<stop  offset="0.0929" style="stop-color:#101811"/>
				<stop  offset="0.155" style="stop-color:#1F361C"/>
				<stop  offset="0.2235" style="stop-color:#315E29"/>
				<stop  offset="0.2962" style="stop-color:#4B903F"/>
				<stop  offset="0.338" style="stop-color:#5CB24D"/>
				<stop  offset="1" style="stop-color:#FFFFFF;stop-opacity:0"/>
			</radialGradient>
			<path class="st3" d="M31.51,45.03l6.8-2.8l-12.4-11.4l-8.8,3c3.8,2.3,7.6,5.2,11.4,8.5C29.61,43.23,30.51,44.13,31.51,45.03z"/>
			<path class="st4" d="M40.31,44.13l-6.9,2.8c4,4.1,7.4,8.4,9.9,12.4l9.9-3.3l0,0l0,0L40.31,44.13z"/>
			
				<radialGradient id="SVGID_2_" cx="835.7945" cy="-1129.4551" r="23.9814" gradientTransform="matrix(-0.957 -0.8433 0.1983 -0.2251 1062.9131 489.778)" gradientUnits="userSpaceOnUse">
				<stop  offset="0" style="stop-color:#020203"/>
				<stop  offset="0.0392" style="stop-color:#050706"/>
				<stop  offset="0.0929" style="stop-color:#101811"/>
				<stop  offset="0.155" style="stop-color:#1F361C"/>
				<stop  offset="0.2235" style="stop-color:#315E29"/>
				<stop  offset="0.2962" style="stop-color:#4B903F"/>
				<stop  offset="0.338" style="stop-color:#5CB24D"/>
				<stop  offset="1" style="stop-color:#FFFFFF;stop-opacity:0"/>
			</radialGradient>
			<path class="st5" d="M40.31,44.13l-6.9,2.8c4,4.1,7.4,8.4,9.9,12.4l9.9-3.3l0,0l0,0L40.31,44.13z"/>
			<path class="st4" d="M31.51,45.03c0.7,0.7,1.4,1.3,2,2l6.9-2.8l-2.1-1.9L31.51,45.03z"/>
			
				<radialGradient id="SVGID_3_" cx="835.7946" cy="-1129.4551" r="23.9814" gradientTransform="matrix(-0.957 -0.8433 0.1983 -0.2251 1062.9133 489.778)" gradientUnits="userSpaceOnUse">
				<stop  offset="0" style="stop-color:#020203"/>
				<stop  offset="0.0392" style="stop-color:#050706"/>
				<stop  offset="0.0929" style="stop-color:#101811"/>
				<stop  offset="0.155" style="stop-color:#1F361C"/>
				<stop  offset="0.2235" style="stop-color:#315E29"/>
				<stop  offset="0.2962" style="stop-color:#4B903F"/>
				<stop  offset="0.338" style="stop-color:#5CB24D"/>
				<stop  offset="1" style="stop-color:#FFFFFF;stop-opacity:0"/>
			</radialGradient>
			<path class="st6" d="M31.51,45.03c0.7,0.7,1.4,1.3,2,2l6.9-2.8l-2.1-1.9L31.51,45.03z"/>
			<path class="st2" d="M24.81,47.73c-4.3-4.3-7.9-8.7-10.6-12.9l-10.7,3.7l13.5,12.4L24.81,47.73z"/>
			
				<radialGradient id="SVGID_4_" cx="810.4716" cy="-1133.9788" r="23.9803" gradientTransform="matrix(-0.957 -0.8433 0.1983 -0.2251 1018.5062 482.5899)" gradientUnits="userSpaceOnUse">
				<stop  offset="0" style="stop-color:#020203"/>
				<stop  offset="0.0392" style="stop-color:#050706"/>
				<stop  offset="0.0929" style="stop-color:#101811"/>
				<stop  offset="0.155" style="stop-color:#1F361C"/>
				<stop  offset="0.2235" style="stop-color:#315E29"/>
				<stop  offset="0.2962" style="stop-color:#4B903F"/>
				<stop  offset="0.338" style="stop-color:#5CB24D"/>
				<stop  offset="1" style="stop-color:#FFFFFF;stop-opacity:0"/>
			</radialGradient>
			<path class="st7" d="M24.81,47.73c-4.3-4.3-7.9-8.7-10.6-12.9l-10.7,3.7l13.5,12.4L24.81,47.73z"/>
			<path class="st4" d="M26.81,49.73l-7.7,3.2l10.8,9.9c0.3,0.3,0.6,0.5,0.8,0.8l10-3.4c-4.1-2.4-8.2-5.5-12.3-9.1
				C27.91,50.73,27.41,50.23,26.81,49.73z"/>
			
				<radialGradient id="SVGID_5_" cx="810.4721" cy="-1133.9789" r="23.9815" gradientTransform="matrix(-0.957 -0.8433 0.1983 -0.2251 1018.5069 482.5899)" gradientUnits="userSpaceOnUse">
				<stop  offset="0" style="stop-color:#020203"/>
				<stop  offset="0.0392" style="stop-color:#050706"/>
				<stop  offset="0.0929" style="stop-color:#101811"/>
				<stop  offset="0.155" style="stop-color:#1F361C"/>
				<stop  offset="0.2235" style="stop-color:#315E29"/>
				<stop  offset="0.2962" style="stop-color:#4B903F"/>
				<stop  offset="0.338" style="stop-color:#5CB24D"/>
				<stop  offset="1" style="stop-color:#FFFFFF;stop-opacity:0"/>
			</radialGradient>
			<path class="st8" d="M26.81,49.73l-7.7,3.2l10.8,9.9c0.3,0.3,0.6,0.5,0.8,0.8l10-3.4c-4.1-2.4-8.2-5.5-12.3-9.1
				C27.91,50.73,27.41,50.23,26.81,49.73z"/>
			<path class="st4" d="M17.01,50.93l2.1,2l7.7-3.2c-0.7-0.6-1.4-1.3-2.1-2L17.01,50.93z"/>
			
				<radialGradient id="SVGID_6_" cx="810.4715" cy="-1133.9789" r="23.9816" gradientTransform="matrix(-0.957 -0.8433 0.1983 -0.2251 1018.5059 482.5898)" gradientUnits="userSpaceOnUse">
				<stop  offset="0" style="stop-color:#020203"/>
				<stop  offset="0.0392" style="stop-color:#050706"/>
				<stop  offset="0.0929" style="stop-color:#101811"/>
				<stop  offset="0.155" style="stop-color:#1F361C"/>
				<stop  offset="0.2235" style="stop-color:#315E29"/>
				<stop  offset="0.2962" style="stop-color:#4B903F"/>
				<stop  offset="0.338" style="stop-color:#5CB24D"/>
				<stop  offset="1" style="stop-color:#FFFFFF;stop-opacity:0"/>
			</radialGradient>
			<path class="st9" d="M17.01,50.93l2.1,2l7.7-3.2c-0.7-0.6-1.4-1.3-2.1-2L17.01,50.93z"/>
			<path class="st2" d="M24.81,47.73l6.7-2.7c-0.9-0.9-1.9-1.8-2.9-2.6c-3.8-3.3-7.6-6.2-11.4-8.5l-3,1
				C16.91,39.13,20.51,43.53,24.81,47.73z"/>
			
				<radialGradient id="SVGID_7_" cx="835.7941" cy="-1129.4551" r="23.981" gradientTransform="matrix(-0.957 -0.8433 0.1983 -0.2251 1062.9126 489.778)" gradientUnits="userSpaceOnUse">
				<stop  offset="0" style="stop-color:#020203"/>
				<stop  offset="0.0392" style="stop-color:#050706"/>
				<stop  offset="0.0929" style="stop-color:#101811"/>
				<stop  offset="0.155" style="stop-color:#1F361C"/>
				<stop  offset="0.2235" style="stop-color:#315E29"/>
				<stop  offset="0.2962" style="stop-color:#4B903F"/>
				<stop  offset="0.338" style="stop-color:#5CB24D"/>
				<stop  offset="1" style="stop-color:#FFFFFF;stop-opacity:0"/>
			</radialGradient>
			<path class="st10" d="M24.81,47.73l6.7-2.7c-0.9-0.9-1.9-1.8-2.9-2.6c-3.8-3.3-7.6-6.2-11.4-8.5l-3,1
				C16.91,39.13,20.51,43.53,24.81,47.73z"/>
			
				<radialGradient id="SVGID_8_" cx="810.4717" cy="-1133.9788" r="23.9811" gradientTransform="matrix(-0.957 -0.8433 0.1983 -0.2251 1018.5064 482.5901)" gradientUnits="userSpaceOnUse">
				<stop  offset="0" style="stop-color:#020203"/>
				<stop  offset="0.0392" style="stop-color:#050706"/>
				<stop  offset="0.0929" style="stop-color:#101811"/>
				<stop  offset="0.155" style="stop-color:#1F361C"/>
				<stop  offset="0.2235" style="stop-color:#315E29"/>
				<stop  offset="0.2962" style="stop-color:#4B903F"/>
				<stop  offset="0.338" style="stop-color:#5CB24D"/>
				<stop  offset="1" style="stop-color:#FFFFFF;stop-opacity:0"/>
			</radialGradient>
			<path class="st11" d="M24.81,47.73l6.7-2.7c-0.9-0.9-1.9-1.8-2.9-2.6c-3.8-3.3-7.6-6.2-11.4-8.5l-3,1
				C16.91,39.13,20.51,43.53,24.81,47.73z"/>
			<path class="st4" d="M26.81,49.73c0.5,0.5,1.1,1,1.6,1.5c4.1,3.6,8.2,6.6,12.3,9.1l2.5-0.9c-2.5-4.1-5.8-8.3-9.9-12.4
				L26.81,49.73z"/>
			
				<radialGradient id="SVGID_9_" cx="835.7947" cy="-1129.4552" r="23.9815" gradientTransform="matrix(-0.957 -0.8433 0.1983 -0.2251 1062.9136 489.778)" gradientUnits="userSpaceOnUse">
				<stop  offset="0" style="stop-color:#020203"/>
				<stop  offset="0.0392" style="stop-color:#050706"/>
				<stop  offset="0.0929" style="stop-color:#101811"/>
				<stop  offset="0.155" style="stop-color:#1F361C"/>
				<stop  offset="0.2235" style="stop-color:#315E29"/>
				<stop  offset="0.2962" style="stop-color:#4B903F"/>
				<stop  offset="0.338" style="stop-color:#5CB24D"/>
				<stop  offset="1" style="stop-color:#FFFFFF;stop-opacity:0"/>
			</radialGradient>
			<path class="st12" d="M26.81,49.73c0.5,0.5,1.1,1,1.6,1.5c4.1,3.6,8.2,6.6,12.3,9.1l2.5-0.9c-2.5-4.1-5.8-8.3-9.9-12.4
				L26.81,49.73z"/>
			
				<radialGradient id="SVGID_10_" cx="810.4716" cy="-1133.9789" r="23.9816" gradientTransform="matrix(-0.957 -0.8433 0.1983 -0.2251 1018.5062 482.5899)" gradientUnits="userSpaceOnUse">
				<stop  offset="0" style="stop-color:#020203"/>
				<stop  offset="0.0392" style="stop-color:#050706"/>
				<stop  offset="0.0929" style="stop-color:#101811"/>
				<stop  offset="0.155" style="stop-color:#1F361C"/>
				<stop  offset="0.2235" style="stop-color:#315E29"/>
				<stop  offset="0.2962" style="stop-color:#4B903F"/>
				<stop  offset="0.338" style="stop-color:#5CB24D"/>
				<stop  offset="1" style="stop-color:#FFFFFF;stop-opacity:0"/>
			</radialGradient>
			<path class="st13" d="M26.81,49.73c0.5,0.5,1.1,1,1.6,1.5c4.1,3.6,8.2,6.6,12.3,9.1l2.5-0.9c-2.5-4.1-5.8-8.3-9.9-12.4
				L26.81,49.73z"/>
			<path class="st4" d="M31.51,45.03l-6.7,2.7c0.7,0.7,1.4,1.3,2.1,2l6.6-2.7C32.81,46.33,32.11,45.63,31.51,45.03z"/>
			
				<radialGradient id="SVGID_11_" cx="835.7945" cy="-1129.4552" r="23.9816" gradientTransform="matrix(-0.957 -0.8433 0.1983 -0.2251 1062.9132 489.778)" gradientUnits="userSpaceOnUse">
				<stop  offset="0" style="stop-color:#020203"/>
				<stop  offset="0.0392" style="stop-color:#050706"/>
				<stop  offset="0.0929" style="stop-color:#101811"/>
				<stop  offset="0.155" style="stop-color:#1F361C"/>
				<stop  offset="0.2235" style="stop-color:#315E29"/>
				<stop  offset="0.2962" style="stop-color:#4B903F"/>
				<stop  offset="0.338" style="stop-color:#5CB24D"/>
				<stop  offset="1" style="stop-color:#FFFFFF;stop-opacity:0"/>
			</radialGradient>
			<path class="st14" d="M31.51,45.03l-6.7,2.7c0.7,0.7,1.4,1.3,2.1,2l6.6-2.7C32.81,46.33,32.11,45.63,31.51,45.03z"/>
			
				<radialGradient id="SVGID_12_" cx="810.4716" cy="-1133.9788" r="23.9815" gradientTransform="matrix(-0.957 -0.8433 0.1983 -0.2251 1018.5062 482.5899)" gradientUnits="userSpaceOnUse">
				<stop  offset="0" style="stop-color:#020203"/>
				<stop  offset="0.0392" style="stop-color:#050706"/>
				<stop  offset="0.0929" style="stop-color:#101811"/>
				<stop  offset="0.155" style="stop-color:#1F361C"/>
				<stop  offset="0.2235" style="stop-color:#315E29"/>
				<stop  offset="0.2962" style="stop-color:#4B903F"/>
				<stop  offset="0.338" style="stop-color:#5CB24D"/>
				<stop  offset="1" style="stop-color:#FFFFFF;stop-opacity:0"/>
			</radialGradient>
			<path class="st15" d="M31.51,45.03l-6.7,2.7c0.7,0.7,1.4,1.3,2.1,2l6.6-2.7C32.81,46.33,32.11,45.63,31.51,45.03z"/>
			<path class="st1" d="M51.71,29.03c-0.9-1.2-1.8-2.4-3-3.5l-25.7-24.8l-1.9,10.8l-0.6,3.1c-1.1,6,1,12.1,5.4,16.2l0,0l12.3,11.4
				l0.2-0.1l2.1,1.9l-0.2,0.1l12.9,11.9l0,0l2-9.8C56.51,40.23,55.11,34.03,51.71,29.03z"/>
			<polygon class="st1" points="40.31,44.13 40.51,44.13 38.41,42.13 38.31,42.23 			"/>
			<path class="st16" d="M30.81,63.63c-0.3-0.3-0.5-0.6-0.8-0.8l-10.8-10l-2.1-2l-13.5-12.4l-2,9.8c-1,4.8-0.4,9.6,1.7,13.9
				c1.2,2.5,2.8,4.8,4.8,6.7l25.8,24.7l2.1-11.7l0.2-1C37.21,74.63,35.21,68.23,30.81,63.63z"/>
			<path class="st17" d="M122.31,40.53L122.31,40.53L122.31,40.53z"/>
			<path class="st0" d="M137.01,30.53c-0.1-0.3-0.3-0.4-0.6-0.4h-5.8c-0.1,0-0.1,0-0.3,0.1c-0.1,0-0.2,0.1-0.2,0.2l-5.9,7.7
				l-1.9,2.5l0,0l-3.8,5l0.1,0.2l0.1,0.2l0.7,0.9v13.2c0,0.5,0.2,0.7,0.6,0.7h4.5c0.4,0,0.6-0.2,0.6-0.7v-13.2l11.9-15.4
				C137.11,31.03,137.11,30.73,137.01,30.53z"/>
		</g>
		<g>
			<path class="st18" d="M208.01,40.33c0,1.5-1,3.2-3.8,3.2c-1.5,0-3.1-0.6-3.7-2c-0.1-0.2,0-0.5,0.3-0.6l0.7-0.2
				c0.2-0.1,0.4,0,0.5,0.2c0.3,0.6,1.1,1.1,2.3,1.1c1.2,0,2.2-0.5,2.2-1.6c0-1.5-1.3-1.5-3-1.9c-2.2-0.5-2.7-1.7-2.7-3.1
				c0-1.8,1.6-3.1,3.6-3.1c1.4,0,2.6,0.7,3.1,1.9c0.1,0.2,0,0.5-0.3,0.6l-0.7,0.2c-0.2,0.1-0.4,0-0.5-0.2c-0.3-0.6-1-1.1-2.1-1
				c-0.9,0.1-1.5,0.8-1.6,1.7c0,1.4,1.3,1.6,2.7,1.9C207.01,37.83,208.01,38.53,208.01,40.33z"/>
			<path class="st18" d="M216.81,41.93c0.2,0,0.4,0.2,0.4,0.4v0.6c0,0.2-0.2,0.4-0.4,0.4h-5.3c-0.2,0-0.4-0.2-0.4-0.4v-10
				c0-0.2,0.2-0.4,0.4-0.4h5.2c0.2,0,0.4,0.2,0.4,0.4v0.6c0,0.2-0.2,0.4-0.4,0.4h-4v3.1h3.7c0.2,0,0.4,0.2,0.4,0.4v0.6
				c0,0.2-0.2,0.4-0.4,0.4h-3.8v3.5H216.81L216.81,41.93z"/>
			<path class="st18" d="M226.21,37.43h4c0.2,0,0.4,0.2,0.4,0.4v5.1c0,0.2-0.1,0.3-0.4,0.3h-0.3c-0.2,0-0.3-0.1-0.3-0.3l-0.1-1.5
				c-0.7,1.2-2,2-3.9,2c-3.2,0-5.5-2.4-5.5-5.6s2.3-5.6,5.5-5.6c1.6,0,3,0.6,4,1.6c0.2,0.2,0.1,0.5-0.1,0.6l-0.6,0.4
				c-0.2,0.1-0.4,0.1-0.5-0.1c-0.7-0.7-1.6-1.1-2.8-1.1c-2.5,0-3.9,2.1-3.9,4.2s1.4,4.2,3.9,4.2c2.3,0,3.5-1.4,3.8-3.2h-3.2
				c-0.2,0-0.4-0.2-0.4-0.4v-0.6C225.71,37.63,225.91,37.43,226.21,37.43z"/>
			<path class="st18" d="M242.01,32.53c0.2,0,0.4,0.2,0.4,0.4v6.3c0,2.8-1.5,4.3-4.1,4.3s-4.1-1.5-4.1-4.3v-6.3
				c0-0.2,0.2-0.4,0.4-0.4h0.7c0.2,0,0.4,0.2,0.4,0.4v6c0,2.3,1,3.1,2.6,3.1s2.6-0.8,2.6-3.1v-6c0-0.2,0.2-0.4,0.4-0.4H242.01z"/>
			<path class="st18" d="M253.41,43.33h-0.8c-0.3,0-0.5-0.1-0.6-0.4l-2.1-3.8c-0.1,0-0.3,0-0.4,0h-1.8v3.8c0,0.2-0.2,0.4-0.4,0.4
				h-0.7c-0.2,0-0.4-0.2-0.4-0.4v-10c0-0.2,0.2-0.4,0.4-0.4h2.9c2.5,0,3.9,1.5,3.9,3.3c0,1.3-0.7,2.4-2,3l2.3,4.1
				C253.81,43.03,253.71,43.33,253.41,43.33z M249.51,37.73c1.5,0,2.3-0.8,2.3-1.9s-0.8-1.9-2.3-1.9h-1.8v3.9L249.51,37.73
				L249.51,37.73z"/>
			<path class="st18" d="M257.41,32.53h0.7c0.2,0,0.4,0.2,0.4,0.4v10c0,0.2-0.2,0.4-0.4,0.4h-0.7c-0.2,0-0.4-0.2-0.4-0.4v-10
				C256.91,32.63,257.11,32.53,257.41,32.53z"/>
			<path class="st18" d="M270.91,37.93c0,3.1-2,5.4-5.7,5.4h-2.6c-0.2,0-0.4-0.2-0.4-0.4v-10c0-0.2,0.2-0.4,0.4-0.4h2.6
				C269.01,32.53,270.91,34.83,270.91,37.93z M269.41,37.93c0-2.4-1.5-4-4.1-4h-1.5v8h1.5C267.91,41.93,269.41,40.33,269.41,37.93z"
				/>
			<path class="st18" d="M280.91,42.93l-0.8-2.2h-4.6l-0.8,2.2c-0.1,0.2-0.3,0.4-0.5,0.4h-0.9c-0.2,0-0.3-0.2-0.2-0.4l3.8-10.1
				c0.1-0.2,0.3-0.4,0.5-0.4h1c0.2,0,0.4,0.1,0.5,0.4l3.8,10.1c0.1,0.2-0.1,0.4-0.3,0.4h-0.9
				C281.21,43.33,281.01,43.13,280.91,42.93z M279.61,39.33l-1.8-5.2l-1.8,5.2H279.61z"/>
			<path class="st18" d="M294.41,37.93c0,3.1-2,5.4-5.7,5.4h-2.6c-0.2,0-0.4-0.2-0.4-0.4v-10c0-0.2,0.2-0.4,0.4-0.4h2.6
				C292.41,32.53,294.41,34.83,294.41,37.93z M292.81,37.93c0-2.4-1.5-4-4.1-4h-1.5v8h1.5C291.31,41.93,292.81,40.33,292.81,37.93z"
				/>
			<path class="st18" d="M206.41,60.53c0.2,0,0.4,0.2,0.4,0.4v0.6c0,0.2-0.2,0.4-0.4,0.4h-5.2c-0.2,0-0.4-0.2-0.4-0.4v-10
				c0-0.2,0.2-0.4,0.4-0.4h0.7c0.2,0,0.4,0.2,0.4,0.4v9H206.41L206.41,60.53z"/>
			<path class="st18" d="M217.41,61.53l-0.8-2.2h-4.6l-0.8,2.2c-0.1,0.2-0.3,0.4-0.5,0.4h-0.9c-0.2,0-0.3-0.2-0.2-0.4l3.8-10.1
				c0.1-0.2,0.3-0.4,0.5-0.4h1c0.2,0,0.4,0.1,0.5,0.4l3.8,10.1c0.1,0.2-0.1,0.4-0.3,0.4h-0.9
				C217.61,61.93,217.41,61.83,217.41,61.53z M216.11,57.93l-1.8-5.2l-1.8,5.2H216.11z"/>
			<path class="st18" d="M229.81,58.83c0,1.8-1.2,3.1-3.7,3.1h-3.5c-0.2,0-0.4-0.2-0.4-0.4v-10c0-0.2,0.2-0.4,0.4-0.4h3.1
				c2.4,0,3.7,1.2,3.7,2.9c0,1-0.5,1.8-1.3,2.3l0,0C229.11,56.73,229.81,57.53,229.81,58.83z M223.71,52.53v3.3h1.9
				c1.2,0,2.3-0.3,2.3-1.7c0-1.3-1-1.6-2.1-1.6L223.71,52.53L223.71,52.53z M228.21,58.83c0-1.3-1.1-1.7-2.3-1.7h-2.2v3.5h2.4
				C227.41,60.53,228.21,59.93,228.21,58.83z"/>
			<path class="st18" d="M243.71,56.53c0,3.2-2.3,5.6-5.5,5.6s-5.5-2.4-5.5-5.6s2.3-5.6,5.5-5.6
				C241.41,50.93,243.71,53.33,243.71,56.53z M242.11,56.53c0-2.1-1.4-4.2-3.9-4.2s-3.9,2.1-3.9,4.2s1.4,4.2,3.9,4.2
				S242.11,58.63,242.11,56.53z"/>
			<path class="st18" d="M254.31,61.93h-0.9c-0.3,0-0.5-0.1-0.6-0.4l-2.1-3.8c-0.1,0-0.3,0-0.4,0h-1.7v3.8c0,0.2-0.2,0.4-0.4,0.4
				h-0.7c-0.2,0-0.4-0.2-0.4-0.4v-10c0-0.2,0.2-0.4,0.4-0.4h2.9c2.5,0,3.9,1.5,3.9,3.3c0,1.3-0.7,2.4-2,3l2.3,4
				C254.71,61.63,254.61,61.93,254.31,61.93z M250.41,56.33c1.5,0,2.3-0.8,2.3-1.9c0-1.2-0.8-1.9-2.3-1.9h-1.8v3.9L250.41,56.33
				L250.41,56.33z"/>
			<path class="st18" d="M265.11,61.53l-0.8-2.2h-4.7l-0.8,2.2c-0.1,0.2-0.3,0.4-0.5,0.4h-0.9c-0.2,0-0.3-0.2-0.2-0.4l3.8-10.1
				c0.1-0.2,0.3-0.4,0.5-0.4h1c0.2,0,0.4,0.1,0.5,0.4l3.8,10.1c0.1,0.2-0.1,0.4-0.3,0.4h-0.9
				C265.41,61.93,265.21,61.83,265.11,61.53z M263.81,57.93l-1.8-5.2l-1.8,5.2H263.81z"/>
			<path class="st18" d="M275.41,60.53c0.2,0,0.4,0.2,0.4,0.4v0.6c0,0.2-0.2,0.4-0.4,0.4h-5.2c-0.2,0-0.4-0.2-0.4-0.4v-10
				c0-0.2,0.2-0.4,0.4-0.4h0.7c0.2,0,0.4,0.2,0.4,0.4v9H275.41L275.41,60.53z"/>
		</g>
		<g>
			<rect x="183.91" y="20.53" class="st19" width="0.6" height="53.3"/>
		</g>
	</g>
</g>
</svg>
